<svg width="24" height="24" viewBox="0 0 24 24" fill="none" xmlns="http://www.w3.org/2000/svg">
<g clip-path="url(#clip0_112_1029)">
<path fill-rule="evenodd" clip-rule="evenodd" d="M5.25 7.5C5.87175 7.5 6.375 8.004 6.375 8.625C6.375 9.24675 5.87175 9.75 5.25 9.75C4.62825 9.75 4.125 9.24675 4.125 8.625C4.125 8.004 4.62825 7.5 5.25 7.5ZM9.75 7.5C10.3717 7.5 10.875 8.004 10.875 8.625C10.875 9.24675 10.3717 9.75 9.75 9.75C9.12825 9.75 8.625 9.24675 8.625 8.625C8.625 8.004 9.12825 7.5 9.75 7.5ZM14.25 7.5C14.8717 7.5 15.375 8.004 15.375 8.625C15.375 9.24675 14.8717 9.75 14.25 9.75C13.6283 9.75 13.125 9.24675 13.125 8.625C13.125 8.004 13.6283 7.5 14.25 7.5ZM7.60275 17.052C8.1855 17.1472 9.51075 17.25 10.125 17.25C15.51 17.25 19.125 13.2428 19.125 8.53125C19.125 3.81975 14.6078 0 10.125 0C4.73325 0 0.375 3.81975 0.375 8.53125C0.375 11.2613 1.41525 13.578 3.375 15.2468V19.5L7.60275 17.052ZM20.5868 6.85426L20.625 7.5C20.631 8.11275 20.625 8.0565 20.625 8.625C20.625 14.6062 15.912 18.75 9.375 18.75H7.125C8.91 20.496 10.9867 21.5625 13.875 21.5625C14.4893 21.5625 15.0885 21.507 15.6712 21.4118L19.875 24V19.7468C22.155 18.1845 23.625 15.7613 23.625 13.0312C23.625 10.5983 22.4543 8.40826 20.5868 6.85426Z" fill="#B2B2B2"/>
</g>
<defs>
<clipPath id="clip0_112_1029">
<rect width="24" height="24" fill="white"/>
</clipPath>
</defs>
</svg>
