<svg width="17" height="16" viewBox="0 0 17 16" fill="none" xmlns="http://www.w3.org/2000/svg">
<path d="M4.19332 13.0133C3.78666 13.0133 3.40666 12.8733 3.13332 12.6133C2.78666 12.2867 2.61999 11.7933 2.67999 11.26L2.92666 9.09999C2.97332 8.69333 3.21999 8.15333 3.50666 7.85999L8.97999 2.06666C10.3467 0.619992 11.7733 0.579992 13.22 1.94666C14.6667 3.31333 14.7067 4.73999 13.34 6.18666L7.86666 11.98C7.58666 12.28 7.06666 12.56 6.65999 12.6267L4.51332 12.9933C4.39999 13 4.29999 13.0133 4.19332 13.0133ZM11.12 1.93999C10.6067 1.93999 10.16 2.25999 9.70666 2.73999L4.23332 8.53999C4.09999 8.67999 3.94666 9.01333 3.91999 9.20666L3.67332 11.3667C3.64666 11.5867 3.69999 11.7667 3.81999 11.88C3.93999 11.9933 4.11999 12.0333 4.33999 12L6.48666 11.6333C6.67999 11.6 6.99999 11.4267 7.13332 11.2867L12.6067 5.49333C13.4333 4.61333 13.7333 3.79999 12.5267 2.66666C11.9933 2.15333 11.5333 1.93999 11.12 1.93999Z" fill="white"/>
<path d="M12.06 7.29998C12.0467 7.29998 12.0267 7.29998 12.0134 7.29998C9.93336 7.09331 8.26003 5.51331 7.94003 3.44665C7.90003 3.17331 8.08669 2.91998 8.36003 2.87331C8.63336 2.83331 8.88669 3.01998 8.93336 3.29331C9.18669 4.90665 10.4934 6.14665 12.12 6.30665C12.3934 6.33331 12.5934 6.57998 12.5667 6.85331C12.5334 7.10665 12.3134 7.29998 12.06 7.29998Z" fill="white"/>
<path d="M14.5 15.1667H2.5C2.22667 15.1667 2 14.94 2 14.6667C2 14.3934 2.22667 14.1667 2.5 14.1667H14.5C14.7733 14.1667 15 14.3934 15 14.6667C15 14.94 14.7733 15.1667 14.5 15.1667Z" fill="white"/>
</svg>
