<svg width="21" height="21" viewBox="0 0 21 21" fill="none" xmlns="http://www.w3.org/2000/svg">
<path d="M17.9752 1.33331H15.5252C14.8002 1.33331 14.2668 1.63331 14.0252 2.16665C13.8918 2.40831 13.8335 2.69165 13.8335 3.02498V5.47498C13.8335 6.53331 14.4668 7.16665 15.5252 7.16665H17.9752C18.3085 7.16665 18.5918 7.10831 18.8335 6.97498C19.3668 6.73331 19.6668 6.19998 19.6668 5.47498V3.02498C19.6668 1.96665 19.0335 1.33331 17.9752 1.33331ZM18.7585 4.60831C18.6752 4.69165 18.5502 4.74998 18.4168 4.75831H17.2418V5.18331L17.2502 5.91665C17.2418 6.05831 17.1918 6.17498 17.0918 6.27498C17.0085 6.35831 16.8835 6.41665 16.7502 6.41665C16.4752 6.41665 16.2502 6.19165 16.2502 5.91665V4.74998L15.0835 4.75831C14.8085 4.75831 14.5835 4.52498 14.5835 4.24998C14.5835 3.97498 14.8085 3.74998 15.0835 3.74998L15.8168 3.75831H16.2502V2.59165C16.2502 2.31665 16.4752 2.08331 16.7502 2.08331C17.0252 2.08331 17.2502 2.31665 17.2502 2.59165L17.2418 3.18331V3.74998H18.4168C18.6918 3.74998 18.9168 3.97498 18.9168 4.24998C18.9085 4.39165 18.8502 4.50831 18.7585 4.60831Z" fill="white"/>
<path d="M7.99994 9.15002C9.0953 9.15002 9.98327 8.26205 9.98327 7.16668C9.98327 6.07132 9.0953 5.18335 7.99994 5.18335C6.90457 5.18335 6.0166 6.07132 6.0166 7.16668C6.0166 8.26205 6.90457 9.15002 7.99994 9.15002Z" fill="white"/>
<path d="M17.9748 7.16669H17.5832V11.0084L17.4748 10.9167C16.8248 10.3584 15.7748 10.3584 15.1248 10.9167L11.6582 13.8917C11.0082 14.45 9.95817 14.45 9.30817 13.8917L9.02484 13.6584C8.43317 13.1417 7.4915 13.0917 6.82484 13.5417L3.70817 15.6334C3.52484 15.1667 3.4165 14.625 3.4165 13.9917V7.00835C3.4165 4.65835 4.65817 3.41669 7.00817 3.41669H13.8332V3.02502C13.8332 2.69169 13.8915 2.40835 14.0248 2.16669H7.00817C3.97484 2.16669 2.1665 3.97502 2.1665 7.00835V13.9917C2.1665 14.9 2.32484 15.6917 2.63317 16.3584C3.34984 17.9417 4.88317 18.8334 7.00817 18.8334H13.9915C17.0248 18.8334 18.8332 17.025 18.8332 13.9917V6.97502C18.5915 7.10835 18.3082 7.16669 17.9748 7.16669Z" fill="white"/>
</svg>
