<svg width="16" height="16" viewBox="0 0 16 16" fill="none" xmlns="http://www.w3.org/2000/svg">
<path d="M14 4.48669C13.9867 4.48669 13.9667 4.48669 13.9467 4.48669C10.42 4.13336 6.9 4.00002 3.41334 4.35336L2.05334 4.48669C1.77334 4.51336 1.52667 4.31336 1.5 4.03336C1.47334 3.75336 1.67334 3.51336 1.94667 3.48669L3.30667 3.35336C6.85334 2.99336 10.4467 3.13336 14.0467 3.48669C14.32 3.51336 14.52 3.76002 14.4933 4.03336C14.4733 4.29336 14.2533 4.48669 14 4.48669Z" fill="#5D001E"/>
<path d="M5.66669 3.81331C5.64003 3.81331 5.61336 3.81331 5.58003 3.80665C5.31336 3.75998 5.12669 3.49998 5.17336 3.23331L5.32003 2.35998C5.42669 1.71998 5.57336 0.833313 7.12669 0.833313H8.87336C10.4334 0.833313 10.58 1.75331 10.68 2.36665L10.8267 3.23331C10.8734 3.50665 10.6867 3.76665 10.42 3.80665C10.1467 3.85331 9.88669 3.66665 9.84669 3.39998L9.70003 2.53331C9.60669 1.95331 9.58669 1.83998 8.88003 1.83998H7.13336C6.42669 1.83998 6.41336 1.93331 6.31336 2.52665L6.16003 3.39331C6.12003 3.63998 5.90669 3.81331 5.66669 3.81331Z" fill="#5D001E"/>
<path d="M10.14 15.1667H5.85997C3.53331 15.1667 3.43997 13.88 3.36664 12.84L2.93331 6.12666C2.91331 5.85332 3.12664 5.61332 3.39997 5.59332C3.67997 5.57999 3.91331 5.78666 3.93331 6.05999L4.36664 12.7733C4.43997 13.7867 4.46664 14.1667 5.85997 14.1667H10.14C11.54 14.1667 11.5666 13.7867 11.6333 12.7733L12.0666 6.05999C12.0866 5.78666 12.3266 5.57999 12.6 5.59332C12.8733 5.61332 13.0866 5.84666 13.0666 6.12666L12.6333 12.84C12.56 13.88 12.4666 15.1667 10.14 15.1667Z" fill="#5D001E"/>
<path d="M9.10666 11.5H6.88666C6.61332 11.5 6.38666 11.2733 6.38666 11C6.38666 10.7267 6.61332 10.5 6.88666 10.5H9.10666C9.37999 10.5 9.60666 10.7267 9.60666 11C9.60666 11.2733 9.37999 11.5 9.10666 11.5Z" fill="#5D001E"/>
<path d="M9.66665 8.83331H6.33331C6.05998 8.83331 5.83331 8.60665 5.83331 8.33331C5.83331 8.05998 6.05998 7.83331 6.33331 7.83331H9.66665C9.93998 7.83331 10.1666 8.05998 10.1666 8.33331C10.1666 8.60665 9.93998 8.83331 9.66665 8.83331Z" fill="#5D001E"/>
</svg>
