<svg width="20" height="20" viewBox="0 0 20 20" fill="none" xmlns="http://www.w3.org/2000/svg">
<path d="M12.5001 18.9584H7.50008C2.97508 18.9584 1.04175 17.025 1.04175 12.5V7.50002C1.04175 2.97502 2.97508 1.04169 7.50008 1.04169H12.5001C17.0251 1.04169 18.9584 2.97502 18.9584 7.50002V12.5C18.9584 12.7084 18.9584 12.9167 18.9417 13.1167C18.9167 13.3833 18.7334 13.6 18.4751 13.6667C18.2167 13.7334 17.9501 13.6334 17.8001 13.4084C17.7751 13.3834 17.7251 13.325 17.6917 13.2834C17.0917 12.6417 16.2751 12.2917 15.4167 12.2917C14.5667 12.2917 13.7667 12.625 13.1751 13.2334C12.6084 13.8167 12.2917 14.5917 12.2917 15.4167C12.2917 15.975 12.4501 16.5333 12.7417 17.025C12.8917 17.275 13.0751 17.5083 13.2834 17.6917C13.3168 17.7167 13.3417 17.7417 13.3584 17.7584L13.4251 17.8167C13.6167 17.975 13.7084 18.25 13.6334 18.4917C13.5584 18.7334 13.3584 18.9167 13.1084 18.9417C12.9251 18.9583 12.7084 18.9584 12.5001 18.9584ZM7.50008 2.29169C3.65841 2.29169 2.29175 3.65835 2.29175 7.50002V12.5C2.29175 16.3417 3.65841 17.7084 7.50008 17.7084H11.6917C11.6834 17.6917 11.6751 17.6834 11.6667 17.6667C11.2584 16.9834 11.0334 16.2 11.0334 15.4167C11.0334 14.2667 11.4751 13.1834 12.2667 12.3667C13.0834 11.525 14.2334 11.0417 15.4084 11.0417C16.2251 11.0417 17.0251 11.2667 17.7001 11.6917V7.50002C17.7001 3.65835 16.3334 2.29169 12.4918 2.29169H7.50008Z" fill="#5D001E"/>
<path d="M17.9001 6.54999H2.1001C1.75843 6.54999 1.4751 6.26665 1.4751 5.92499C1.4751 5.58332 1.75843 5.29999 2.1001 5.29999H17.9001C18.2418 5.29999 18.5251 5.58332 18.5251 5.92499C18.5251 6.26665 18.2501 6.54999 17.9001 6.54999Z" fill="#5D001E"/>
<path d="M7.1001 6.43329C6.75843 6.43329 6.4751 6.14996 6.4751 5.80829V1.7583C6.4751 1.41663 6.75843 1.1333 7.1001 1.1333C7.44176 1.1333 7.7251 1.41663 7.7251 1.7583V5.80829C7.7251 6.14996 7.44176 6.43329 7.1001 6.43329Z" fill="#5D001E"/>
<path d="M12.8999 6.05833C12.5582 6.05833 12.2749 5.775 12.2749 5.43333V1.7583C12.2749 1.41663 12.5582 1.1333 12.8999 1.1333C13.2416 1.1333 13.5249 1.41663 13.5249 1.7583V5.43333C13.5249 5.78333 13.2499 6.05833 12.8999 6.05833Z" fill="#5D001E"/>
<path d="M15.4165 19.7917C14.4331 19.7917 13.4748 19.4583 12.7248 18.8417C12.6998 18.825 12.6748 18.8083 12.6581 18.7917C12.5998 18.7417 12.5581 18.7083 12.5248 18.675C12.5081 18.6667 12.4998 18.6583 12.4915 18.6417C12.1831 18.3667 11.8998 18.0334 11.6831 17.6667C11.2748 16.9834 11.0498 16.2 11.0498 15.4167C11.0498 14.2667 11.4915 13.1834 12.2831 12.3667C13.0998 11.525 14.2498 11.0417 15.4248 11.0417C16.6581 11.0417 17.8331 11.5584 18.6498 12.4667C18.6581 12.475 18.6748 12.4917 18.6831 12.5084C18.7415 12.5667 18.7998 12.6417 18.8415 12.7084C19.4415 13.4334 19.7998 14.4084 19.7998 15.4167C19.7998 15.7834 19.7581 16.125 19.6748 16.45C19.5748 16.8667 19.4081 17.275 19.1748 17.6667C18.3748 18.9834 16.9415 19.7917 15.4165 19.7917ZM13.4081 17.7917C13.4331 17.8083 13.4498 17.8167 13.4665 17.8334C14.0165 18.2917 14.6831 18.5333 15.4165 18.5333C16.5081 18.5333 17.5248 17.95 18.0915 17.0167C18.2581 16.7417 18.3748 16.4417 18.4498 16.1333C18.5081 15.9 18.5415 15.6667 18.5415 15.4083C18.5415 14.6917 18.2915 14 17.8331 13.45L17.7581 13.35C17.7331 13.325 17.7081 13.3 17.6915 13.2667C17.0915 12.6333 16.2748 12.2833 15.4165 12.2833C14.5665 12.2833 13.7665 12.6167 13.1748 13.225C12.6081 13.8083 12.2915 14.5833 12.2915 15.4083C12.2915 15.9667 12.4498 16.525 12.7415 17.0167C12.8915 17.2667 13.0748 17.5 13.2831 17.6833C13.3165 17.7083 13.3415 17.7333 13.3581 17.75L13.4081 17.7917Z" fill="#5D001E"/>
<path d="M16.8166 16.025H14.0166C13.6749 16.025 13.3916 15.7416 13.3916 15.4C13.3916 15.0583 13.6749 14.775 14.0166 14.775H16.8166C17.1583 14.775 17.4416 15.0583 17.4416 15.4C17.4416 15.7416 17.1666 16.025 16.8166 16.025Z" fill="#5D001E"/>
<path d="M15.4167 17.4584C15.0751 17.4584 14.7917 17.175 14.7917 16.8334V14.0334C14.7917 13.6917 15.0751 13.4084 15.4167 13.4084C15.7584 13.4084 16.0417 13.6917 16.0417 14.0334V16.8334C16.0417 17.1834 15.7584 17.4584 15.4167 17.4584Z" fill="#5D001E"/>
</svg>
